<svg xmlns="http://www.w3.org/2000/svg" viewBox="0 0 27.87 27.87"><defs><style>.cls-1{fill:#fff;}</style></defs><title>whatsapp</title><g id="Слой_2" data-name="Слой 2"><g id="Layer_1" data-name="Layer 1"><path class="cls-1" d="M13.93,0A13.93,13.93,0,0,0,0,13.93c0,2.6.05,3.78,1.29,5.86L0,27.87l7.6-1.52a11.82,11.82,0,0,0,6.33,1.52A13.94,13.94,0,1,0,13.93,0Zm0,25a10.93,10.93,0,0,1-5.42-1.43l-4.91.72.84-4.71A10.91,10.91,0,0,1,2.9,13.93a11,11,0,1,1,11,11Z"/><path class="cls-1" d="M7.76,19a3.21,3.21,0,0,1-.28-1.27.88.88,0,0,1,0-.2A1.5,1.5,0,0,1,8,17.11l1.11-.63.67-.36L10,16l.32-.19a.65.65,0,0,1,.26-.06c.15,0,.35.14.59.41s.49.55.72.83.42.41.56.41a.59.59,0,0,0,.21,0l.19-.08.22-.12.17-.11A9.08,9.08,0,0,0,17,13.25s.05-.08.11-.17l.12-.22.08-.19a.59.59,0,0,0,0-.21.66.66,0,0,0-.26-.42,5.31,5.31,0,0,0-.56-.49,3.93,3.93,0,0,1-.57-.5.75.75,0,0,1-.26-.46.65.65,0,0,1,.06-.26c.05-.09.11-.2.19-.32l.17-.24s.09-.17.19-.36.2-.38.31-.57l.34-.6a3.57,3.57,0,0,1,.31-.51,1,1,0,0,1,.21-.23l.2,0A3.21,3.21,0,0,1,19,7.76,2.2,2.2,0,0,1,20,9a3.89,3.89,0,0,1,.43,1.64,3.22,3.22,0,0,1,0,.43q0,.23-.06.39a3.19,3.19,0,0,1-.12.41,3.23,3.23,0,0,1-.12.37c0,.08-.08.22-.16.42l-.14.38A11.12,11.12,0,0,1,17,17a11.12,11.12,0,0,1-4,2.73l-.38.14-.42.16-.37.12a3.19,3.19,0,0,1-.41.12l-.39.06-.43,0A3.89,3.89,0,0,1,9,20a2.2,2.2,0,0,1-1.19-1Z"/></g></g></svg>