<?xml version="1.0" encoding="utf-8"?>
<!-- Generator: Adobe Illustrator 21.0.2, SVG Export Plug-In . SVG Version: 6.00 Build 0)  -->
<svg version="1.1" id="Слой_1" xmlns="http://www.w3.org/2000/svg" xmlns:xlink="http://www.w3.org/1999/xlink" x="0px" y="0px"
	 viewBox="0 0 12.1 26.3" style="enable-background:new 0 0 12.1 26.3;" xml:space="preserve">
<style type="text/css">
	.st0{clip-path:url(#SVGID_2_);fill-rule:evenodd;clip-rule:evenodd;}
</style>
<g>
	<defs>
		<rect id="SVGID_1_" y="0" width="12.1" height="26.3"/>
	</defs>
	<clipPath id="SVGID_2_">
		<use xlink:href="#SVGID_1_"  style="overflow:visible;"/>
	</clipPath>
	<path class="st0" d="M2.7,13.2c0.1,0.1,0,0.7,0,0.8l0,12.3h5.4c0-3.2,0-6.6,0-9.8c0,0,0-3.2,0-3.2c0,0,0,0,0-0.1c0,0,3.4,0,3.5,0
		l0.1,0l0.5-4.5H8.1c0-0.7,0-1.4,0-2c0-0.6,0-1.4,0.3-1.7l3.7-0.4l0-4.5c-0.7,0-1.5,0-2.2,0C9.1,0,8.4,0,7.7,0
		C6.3,0.1,5.1,0.6,4.3,1.2C3.2,3.1,2.7,1.5,2.7,8.6L0,8.6l0,4.5L2.7,13.2z"/>
</g>
</svg>
