<?xml version="1.0" encoding="utf-8"?>
<!-- Generator: Adobe Illustrator 21.0.2, SVG Export Plug-In . SVG Version: 6.00 Build 0)  -->
<svg version="1.1" id="Layer_1" xmlns="http://www.w3.org/2000/svg" xmlns:xlink="http://www.w3.org/1999/xlink" x="0px" y="0px"
	 viewBox="0 0 574 86" style="enable-background:new 0 0 574 86;" xml:space="preserve">
<style type="text/css">
	.st0{fill-rule:evenodd;clip-rule:evenodd;fill:#FFFFFF;}
</style>
<path class="st0" d="M151.4,145.7c-3.1,0-6.1,0-9.2,0c-3,0-6.1,0-9.1,0c-1.9,0-3.1,1.1-3.1,3c0,6.1,0,12.3,0,18.4c0,1.8,1.2,3,3,3
	c6.2,0,12.3,0,18.5,0c1.8,0,3-1.2,3-3.1c0-6.1,0-12.2,0-18.4C154.4,146.9,153.3,145.7,151.4,145.7z M147.9,148.6c0.9,0,1.8,0,2.7,0
	c0.6,0,0.9,0.3,0.9,0.9c0,0.9,0,1.8,0,2.7c0,0.6-0.4,0.9-1,1c-0.4,0-0.9,0-1.4,0c-0.4,0-0.9,0-1.3,0c-0.6,0-0.9-0.3-1-0.9
	c0-0.9,0-1.9,0-2.8C147,148.9,147.3,148.6,147.9,148.6z M142.2,153.3c2.6,0,4.7,2.1,4.7,4.6c0,2.6-2,4.7-4.6,4.7
	c-2.6,0-4.6-2.1-4.6-4.7C137.6,155.4,139.6,153.3,142.2,153.3z M151.6,156.8c0,3.1,0,6.2,0,9.2c0,1-0.3,1.2-1.2,1.2
	c-5.4,0-10.9,0-16.3,0c-0.9,0-1.2-0.3-1.2-1.1c0-3.2,0-6.4,0-9.7c0-0.1,0-0.2,0-0.4c0.7,0,1.3,0,2,0c-0.5,2.9,0.2,5.4,2.3,7.4
	c1.6,1.4,3.5,2.1,5.6,1.9c4-0.3,7.8-4,6.8-9.3c0.7,0,1.3,0,2,0C151.6,156.3,151.6,156.6,151.6,156.8z"/>
</svg>
