<svg xmlns="http://www.w3.org/2000/svg" viewBox="0 0 574 86"><path d="M151.4 145.7h-18.3c-1.9 0-3.1 1.1-3.1 3v18.4c0 1.8 1.2 3 3 3h18.5c1.8 0 3-1.2 3-3.1v-18.4c-.1-1.7-1.2-2.9-3.1-2.9zm-3.5 2.9h2.7c.6 0 .9.3.9.9v2.7c0 .6-.4.9-1 1h-2.7c-.6 0-.9-.3-1-.9v-2.8c.2-.6.5-.9 1.1-.9zm-5.7 4.7c2.6 0 4.7 2.1 4.7 4.6 0 2.6-2 4.7-4.6 4.7-2.6 0-4.6-2.1-4.6-4.7-.1-2.5 1.9-4.6 4.5-4.6zm9.4 3.5v9.2c0 1-.3 1.2-1.2 1.2h-16.3c-.9 0-1.2-.3-1.2-1.1V156h2c-.5 2.9.2 5.4 2.3 7.4 1.6 1.4 3.5 2.1 5.6 1.9 4-.3 7.8-4 6.8-9.3h2v.8z" fill-rule="evenodd" clip-rule="evenodd" fill="#fff"/></svg>