<svg xmlns="http://www.w3.org/2000/svg" xmlns:xlink="http://www.w3.org/1999/xlink" viewBox="0 0 562 562"><defs><circle id="a" cx="281" cy="281" r="281"/></defs><clipPath id="b"><use xlink:href="#a" overflow="visible"/></clipPath><linearGradient id="c" gradientUnits="userSpaceOnUse" y1="562.013" x2="1" y2="562.013" gradientTransform="matrix(0 559.9619 559.9619 0 -314424.844 0)"><stop offset="0" stop-color="#42bce8"/><stop offset="1" stop-color="#23a7dc"/></linearGradient><path clip-path="url(#b)" fill="url(#c)" d="M0 0h562v562H0z"/><defs><path id="d" d="M0 0h562v562H0z"/></defs><clipPath id="e"><use xlink:href="#d" overflow="visible"/></clipPath><path d="M417.7 161.6l-50.2 253.1s-7 17.5-26.3 9.1L225.4 335l-42.1-20.4-70.9-23.9s-10.9-3.9-11.9-12.3c-1.1-8.4 12.3-13 12.3-13L394.6 155s23.1-10.2 23.1 6.6" clip-path="url(#e)" fill="#fff"/><path d="M216.5 411.9s-3.4-.3-7.6-13.7c-4.2-13.3-25.6-83.5-25.6-83.5l170.2-108.1s9.8-6 9.5 0c0 0 1.8 1.1-3.5 6S225.8 333 225.8 333" clip-path="url(#e)" fill="#d2e5f1"/><path d="M269.8 369.1L224 410.8s-3.6 2.7-7.5 1l8.8-77.6" clip-path="url(#e)" fill="#b5cfe4"/></svg>