<svg xmlns="http://www.w3.org/2000/svg" viewBox="0 0 367.4 209.6"><path d="M-305.2 204.1h22s6.6-.7 10-4.4c3.1-3.4 3-9.6 3-9.6s-.4-29.5 13.2-33.8c13.5-4.3 30.8 28.5 49.1 41.1 13.9 9.5 24.4 7.4 24.4 7.4l49.1-.7s25.7-1.6 13.5-21.8c-1-1.6-7.1-14.9-36.5-42.2-30.8-28.6-26.6-23.9 10.4-73.3 22.6-30.1 31.6-48.4 28.8-56.3C-120.8 3-137.4 5-137.4 5l-55.2.3s-4.1-.6-7.1 1.3c-3 1.8-4.9 5.9-4.9 5.9s-8.7 23.3-20.4 43.1c-24.6 41.8-34.4 44-38.5 41.4-9.4-6-7-24.3-7-37.2 0-40.5 6.1-57.4-12-61.7-6-1.5-10.4-2.4-25.8-2.6-19.7-.2-36.4.1-45.8 4.7-6.3 3.1-11.1 9.9-8.2 10.3 3.7.5 11.9 2.2 16.3 8.2 5.7 7.7 5.5 25 5.5 25s3.3 47.7-7.6 53.6c-7.4 4.1-17.7-4.2-39.6-42.1-11.2-19.4-19.7-40.9-19.7-40.9s-1.6-4-4.6-6.2c-3.5-2.6-8.5-3.4-8.5-3.4L-473 5s-7.9.2-10.8 3.6c-2.6 3-.2 9.4-.2 9.4s41.1 96.2 87.6 144.6c42.7 44.4 91.2 41.5 91.2 41.5" fill="#fff"/></svg>