<svg xmlns="http://www.w3.org/2000/svg" xmlns:xlink="http://www.w3.org/1999/xlink" viewBox="0 0 562 562"><defs><path id="a" d="M0 0h562v562H0z"/></defs><clipPath id="b"><use xlink:href="#a" overflow="visible"/></clipPath><path d="M0 562l38.8-140.5C13.6 377.9 0 329.5 0 279.1 0 126 126 0 280 0s282 126 282 279.1S434.1 562 280 562c-48.4 0-95-15.5-136.6-38.8L0 562z" clip-path="url(#b)" fill="#ededed"/><path d="M151.2 472.9l8.7 4.8c35.9 22.3 77.5 35.9 121.1 35.9 126.9 0 232.6-105.6 232.6-234.5S408 48.5 280.1 48.5 48.4 151.2 48.4 279.1c0 44.6 12.6 88.2 35.9 125l5.8 8.7-22.3 81.4 83.4-21.3z" clip-path="url(#b)" fill="#55cd6c"/><path d="M205.4 149.2l-18.4-1c-5.8 0-11.6 1.9-15.5 5.8-8.7 7.8-23.3 22.3-27.1 41.7-6.8 29.1 3.9 64 29.1 98.8 25.2 34.9 73.6 91.1 158.9 115.3 27.1 7.8 48.4 2.9 65.9-7.8 13.6-8.7 22.3-22.3 25.2-36.8l2.9-13.6c1-3.9-1-8.7-4.8-10.7l-61-28.1c-3.9-1.9-8.7-1-11.6 2.9l-24.2 31c-1.9 1.9-4.8 2.9-7.8 1.9-16.5-5.8-71.7-29.1-101.7-87.2-1-2.9-1-5.8 1-7.8l23.3-26.2c1.9-2.9 2.9-6.8 1.9-9.7l-28.1-63c-1.2-2.6-4.1-5.5-8-5.5" clip-path="url(#b)" fill="#fefefe"/></svg>