<?xml version="1.0" encoding="utf-8"?>
<!-- Generator: Adobe Illustrator 21.0.2, SVG Export Plug-In . SVG Version: 6.00 Build 0)  -->
<svg version="1.1" id="Слой_1" xmlns="http://www.w3.org/2000/svg" xmlns:xlink="http://www.w3.org/1999/xlink" x="0px" y="0px"
	 viewBox="0 0 562 562" style="enable-background:new 0 0 562 562;" xml:space="preserve">
<style type="text/css">
	.st0{clip-path:url(#SVGID_2_);fill:url(#SVGID_3_);}
	.st1{clip-path:url(#SVGID_5_);fill:#FFFFFF;}
	.st2{clip-path:url(#SVGID_5_);fill:#D2E5F1;}
	.st3{clip-path:url(#SVGID_5_);fill:#B5CFE4;}
</style>
<g>
	<defs>
		<circle id="SVGID_1_" cx="281" cy="281" r="281"/>
	</defs>
	<clipPath id="SVGID_2_">
		<use xlink:href="#SVGID_1_"  style="overflow:visible;"/>
	</clipPath>
	
		<linearGradient id="SVGID_3_" gradientUnits="userSpaceOnUse" x1="1.198987e-06" y1="562.013" x2="1" y2="562.013" gradientTransform="matrix(0 559.9619 559.9619 0 -314424.8438 3.662109e-04)">
		<stop  offset="0" style="stop-color:#42BCE8"/>
		<stop  offset="1" style="stop-color:#23A7DC"/>
	</linearGradient>
	<rect x="0" y="0" class="st0" width="562" height="562"/>
</g>
<g>
	<defs>
		<rect id="SVGID_4_" width="562" height="562"/>
	</defs>
	<clipPath id="SVGID_5_">
		<use xlink:href="#SVGID_4_"  style="overflow:visible;"/>
	</clipPath>
	<path class="st1" d="M417.7,161.6l-50.2,253.1c0,0-7,17.5-26.3,9.1L225.4,335l-42.1-20.4l-70.9-23.9c0,0-10.9-3.9-11.9-12.3
		c-1.1-8.4,12.3-13,12.3-13L394.6,155C394.6,155,417.7,144.8,417.7,161.6"/>
	<path class="st2" d="M216.5,411.9c0,0-3.4-0.3-7.6-13.7c-4.2-13.3-25.6-83.5-25.6-83.5l170.2-108.1c0,0,9.8-6,9.5,0
		c0,0,1.8,1.1-3.5,6c-5.3,4.9-133.7,120.4-133.7,120.4"/>
	<path class="st3" d="M269.8,369.1L224,410.8c0,0-3.6,2.7-7.5,1l8.8-77.6"/>
</g>
</svg>
