<?xml version="1.0" encoding="utf-8"?>
<!-- Generator: Adobe Illustrator 21.0.2, SVG Export Plug-In . SVG Version: 6.00 Build 0)  -->
<svg version="1.1" id="Слой_1" xmlns="http://www.w3.org/2000/svg" xmlns:xlink="http://www.w3.org/1999/xlink" x="0px" y="0px"
	 viewBox="0 0 559.6 559.6" style="enable-background:new 0 0 559.6 559.6;" xml:space="preserve">
<style type="text/css">
	.st0{clip-path:url(#SVGID_2_);fill:#4D76A1;}
	.st1{clip-path:url(#SVGID_2_);fill:#FFFFFF;}
</style>
<g>
	<defs>
		<rect id="SVGID_1_" width="559.6" height="559.6"/>
	</defs>
	<clipPath id="SVGID_2_">
		<use xlink:href="#SVGID_1_"  style="overflow:visible;"/>
	</clipPath>
	<path class="st0" d="M279.8,0c154.5,0,279.8,125.3,279.8,279.8c0,154.5-125.3,279.8-279.8,279.8S0,434.3,0,279.8
		C0,125.3,125.3,0,279.8,0"/>
	<path class="st1" d="M269.2,402.5h22c0,0,6.6-0.7,10-4.4c3.1-3.4,3-9.6,3-9.6s-0.4-29.5,13.2-33.8c13.5-4.3,30.8,28.5,49.1,41.1
		c13.9,9.5,24.4,7.4,24.4,7.4l49.1-0.7c0,0,25.7-1.6,13.5-21.8c-1-1.7-7.1-14.9-36.5-42.2c-30.8-28.6-26.6-23.9,10.4-73.3
		c22.6-30.1,31.6-48.4,28.8-56.3c-2.7-7.5-19.3-5.5-19.3-5.5l-55.2,0.3c0,0-4.1-0.6-7.1,1.3c-3,1.8-4.9,5.9-4.9,5.9
		s-8.7,23.3-20.4,43.1c-24.6,41.8-34.4,44-38.5,41.4c-9.4-6-7-24.3-7-37.2c0-40.5,6.1-57.4-12-61.7c-6-1.5-10.4-2.4-25.8-2.6
		c-19.7-0.2-36.4,0.1-45.8,4.7c-6.3,3.1-11.1,9.9-8.2,10.3c3.7,0.5,11.9,2.2,16.3,8.2c5.7,7.7,5.5,25,5.5,25s3.3,47.7-7.6,53.6
		c-7.4,4.1-17.7-4.2-39.6-42.1c-11.2-19.4-19.7-40.9-19.7-40.9s-1.6-4-4.6-6.2c-3.5-2.6-8.5-3.4-8.5-3.4l-52.5,0.3
		c0,0-7.9,0.2-10.8,3.6c-2.6,3-0.2,9.4-0.2,9.4s41.1,96.2,87.6,144.6C220.8,405.4,269.2,402.5,269.2,402.5"/>
</g>
</svg>
